<?xml version="1.0" encoding="UTF-8" standalone="no"?>
<!-- Generator: Adobe Illustrator 17.1.0, SVG Export Plug-In . SVG Version: 6.00 Build 0)  -->
<!-- From https://www.svgrepo.com/svg/165723/working-progress 
     file images/helpcovid.svg of github.com/bstarynk/helpcovid
     CCBYSA4 -->
<svg
   xmlns:dc="http://purl.org/dc/elements/1.1/"
   xmlns:cc="http://creativecommons.org/ns#"
   xmlns:rdf="http://www.w3.org/1999/02/22-rdf-syntax-ns#"
   xmlns:svg="http://www.w3.org/2000/svg"
   xmlns="http://www.w3.org/2000/svg"
   xmlns:sodipodi="http://sodipodi.sourceforge.net/DTD/sodipodi-0.dtd"
   xmlns:inkscape="http://www.inkscape.org/namespaces/inkscape"
   version="1.1"
   id="Capa_1"
   x="0px"
   y="0px"
   viewBox="0 0 386.802 386.802"
   style="enable-background:new 0 0 386.802 386.802;"
   xml:space="preserve"
   sodipodi:docname="helpcovid-logo.svg"
   inkscape:version="0.92.4 (5da689c313, 2019-01-14)"><metadata
   id="metadata39"><rdf:RDF><cc:Work
       rdf:about=""><dc:format>image/svg+xml</dc:format><dc:type
         rdf:resource="http://purl.org/dc/dcmitype/StillImage" /></cc:Work></rdf:RDF></metadata><defs
   id="defs37" /><sodipodi:namedview
   pagecolor="#ffffff"
   bordercolor="#666666"
   borderopacity="1"
   objecttolerance="10"
   gridtolerance="10"
   guidetolerance="10"
   inkscape:pageopacity="0"
   inkscape:pageshadow="2"
   inkscape:window-width="1365"
   inkscape:window-height="852"
   id="namedview35"
   showgrid="false"
   inkscape:zoom="0.61013128"
   inkscape:cx="-108.99294"
   inkscape:cy="193.401"
   inkscape:window-x="435"
   inkscape:window-y="202"
   inkscape:window-maximized="0"
   inkscape:current-layer="Capa_1" />
<path
   d="M285.079,162.206c0-4.971,4.029-9,9-9h17.944c4.971,0,9,4.029,9,9s-4.029,9-9,9h-17.944  C289.108,171.206,285.079,167.177,285.079,162.206z M315.854,223.371c0,4.971,4.029,9,9,9h24.15c0.055,0.001,0.11,0.001,0.165,0.001  c4.971,0,9-4.029,9-9v-92.083c0-4.971-4.029-9-9-9s-9,4.029-9,9v83.082h-15.315C319.883,214.371,315.854,218.4,315.854,223.371z   M313.277,141.598c1.771,1.875,4.155,2.822,6.546,2.822c2.217,0,4.438-0.814,6.177-2.456c3.614-3.413,3.777-9.108,0.365-12.723  l-3.899-4.13c-3.411-3.613-9.106-3.778-12.723-0.366c-3.614,3.412-3.777,9.108-0.365,12.723L313.277,141.598z M175.125,99.797  c20.693,0,37.528,16.835,37.528,37.528c0,20.693-16.835,37.528-37.528,37.528c-20.692,0-37.527-16.835-37.527-37.528  C137.598,116.632,154.433,99.797,175.125,99.797z M175.125,117.797c-10.768,0-19.527,8.76-19.527,19.528  c0,10.768,8.76,19.528,19.527,19.528s19.528-8.76,19.528-19.528C194.654,126.558,185.893,117.797,175.125,117.797z M326.365,195.171  c3.412-3.614,3.249-9.31-0.365-12.723c-3.614-3.414-9.31-3.248-12.723,0.364l-3.899,4.129c-3.412,3.614-3.249,9.31,0.365,12.723  c1.739,1.643,3.96,2.457,6.177,2.457c2.39,0,4.775-0.946,6.546-2.821L326.365,195.171z M107.322,150.057  c-4.335,0.873-8.793,1.316-13.251,1.316c-36.772,0-66.689-29.916-66.689-66.688C27.381,47.915,57.298,18,94.071,18  c31.028,0,58.41,21.951,65.107,52.195c1.075,4.853,5.883,7.915,10.733,6.841c4.853-1.075,7.916-5.88,6.841-10.733  c-4.103-18.523-14.514-35.349-29.317-47.375C132.412,6.722,113.46,0,94.071,0C47.373,0,9.381,37.99,9.381,84.686  c0,46.697,37.991,84.688,84.689,84.688c5.649,0,11.304-0.562,16.806-1.67c4.873-0.981,8.027-5.728,7.046-10.6  C116.94,152.23,112.196,149.08,107.322,150.057z M252.437,368.8h-15.315v-83.083c0-4.958-4.01-8.982-8.968-9l-51.789-0.186v-65.813  l63.482,21.192c4.715,1.572,9.813-0.973,11.387-5.688c1.573-4.714-0.973-9.813-5.688-11.387l-75.039-25.049  c-0.952-0.355-1.981-0.553-3.056-0.563c-0.141-0.003-0.271,0-0.406,0.005c-0.006,0-0.013,0-0.02,0.001  c-1.992,0.074-3.82,0.795-5.277,1.961c-0.979,0.78-1.804,1.77-2.397,2.932c-0.332,0.647-0.588,1.34-0.756,2.067  c-0.181,0.774-0.255,1.553-0.23,2.319v86.959c-0.005,1.293,0.264,2.523,0.751,3.636c0.003,0.008,0.007,0.017,0.011,0.025  s0.007,0.017,0.011,0.024c0,0.001,0.001,0.001,0.001,0.002c0.004,0.008,0.007,0.015,0.01,0.022c0.001,0.001,0.001,0.002,0.002,0.003  c0.003,0.007,0.006,0.015,0.01,0.021c0.001,0.002,0.002,0.004,0.003,0.006c0.002,0.006,0.005,0.013,0.008,0.019  c0.001,0.002,0.002,0.004,0.003,0.006c0.003,0.006,0.006,0.012,0.009,0.018c0.001,0.003,0.002,0.005,0.003,0.008  c0.003,0.005,0.006,0.011,0.008,0.017c0.002,0.003,0.003,0.006,0.005,0.009c0.002,0.005,0.005,0.01,0.007,0.015  c0.002,0.003,0.003,0.007,0.005,0.011c0.002,0.004,0.005,0.009,0.007,0.013s0.003,0.008,0.005,0.012  c0.003,0.004,0.004,0.008,0.007,0.013c0.002,0.004,0.004,0.009,0.006,0.014c0.002,0.004,0.004,0.007,0.005,0.011  c0.003,0.005,0.006,0.01,0.008,0.015c0.001,0.003,0.003,0.006,0.004,0.009c0.003,0.005,0.006,0.011,0.009,0.017  c0.001,0.002,0.002,0.004,0.003,0.007c0.003,0.006,0.007,0.012,0.01,0.019c0.001,0.001,0.002,0.004,0.002,0.005  c0.004,0.007,0.007,0.013,0.01,0.02c0.001,0.001,0.002,0.003,0.003,0.005c0.003,0.007,0.007,0.014,0.01,0.021  c0.001,0.001,0.001,0.002,0.002,0.003c0.004,0.007,0.007,0.014,0.011,0.021c0,0.001,0.001,0.002,0.001,0.003  c0.004,0.007,0.008,0.015,0.012,0.022c0,0,0.001,0.001,0.001,0.002c0.004,0.007,0.008,0.015,0.011,0.022  c0.001,0,0.001,0.001,0.001,0.002c0.288,0.566,0.634,1.099,1.03,1.588l0.001,0.001c0.005,0.006,0.011,0.013,0.016,0.02l0.001,0.001  c0.005,0.006,0.01,0.012,0.015,0.018c0.001,0.001,0.002,0.002,0.003,0.003c0.005,0.006,0.011,0.013,0.016,0.019  c0,0,0.001,0.001,0.001,0.001c0.005,0.006,0.01,0.012,0.015,0.018c0.001,0.001,0.002,0.002,0.003,0.003  c0.005,0.006,0.01,0.011,0.015,0.017c0.001,0.001,0.002,0.002,0.003,0.004c0.004,0.005,0.009,0.01,0.013,0.016  c0.002,0.002,0.003,0.003,0.005,0.005c0.005,0.005,0.009,0.01,0.013,0.015c0.002,0.002,0.003,0.003,0.005,0.005  c0.004,0.005,0.008,0.01,0.012,0.015c0.002,0.002,0.004,0.004,0.006,0.006c0.004,0.004,0.008,0.009,0.012,0.014  c0.002,0.002,0.004,0.004,0.006,0.007c0.004,0.004,0.007,0.008,0.011,0.013c0.002,0.003,0.005,0.005,0.007,0.008  c0.004,0.004,0.007,0.008,0.011,0.012c0.002,0.003,0.005,0.006,0.007,0.008c0.004,0.004,0.007,0.008,0.011,0.012  c0.002,0.003,0.005,0.006,0.008,0.009c0.003,0.003,0.006,0.007,0.009,0.01s0.006,0.007,0.009,0.01  c0.003,0.003,0.005,0.006,0.008,0.009c0.004,0.004,0.007,0.008,0.011,0.012c0.002,0.002,0.004,0.005,0.007,0.008  c0.003,0.004,0.007,0.008,0.011,0.012c0.002,0.003,0.004,0.005,0.006,0.007c0.005,0.005,0.008,0.009,0.013,0.014  c0.001,0.002,0.003,0.003,0.005,0.005c0.004,0.005,0.009,0.01,0.013,0.015c0.002,0.001,0.003,0.003,0.005,0.005  c0.004,0.005,0.009,0.01,0.014,0.016c0.001,0.001,0.002,0.002,0.003,0.003c0.005,0.005,0.01,0.011,0.015,0.016  c0.002,0.002,0.003,0.003,0.004,0.004c0.005,0.005,0.01,0.011,0.015,0.016c0.001,0.001,0.002,0.001,0.002,0.002  c0.006,0.006,0.011,0.012,0.017,0.018c0.001,0,0.001,0.001,0.002,0.002c0.005,0.006,0.012,0.012,0.017,0.018v0  c0.006,0.006,0.013,0.013,0.019,0.02v0c1.636,1.757,3.967,2.859,6.557,2.869l51.789,0.186v82.884  c-0.002,0.076-0.003,0.153-0.003,0.23c0,3.098,1.564,5.83,3.947,7.449c1.44,0.98,3.182,1.553,5.056,1.553  c0.063,0,0.128,0,0.191-0.002h24.124c4.971,0,9-4.029,9-9S257.408,368.8,252.437,368.8z M368.42,243.424  c-0.064,0-0.128,0-0.191,0.002H239.764c-4.971,0-9,4.029-9,9s4.029,9,9,9H359.42v107.372h-31.05c-4.971,0-9,4.029-9,9s4.029,9,9,9  h40.05c4.971,0,9-4.029,9-9c0-0.556-0.051-1.099-0.146-1.627c0.096-0.528,0.146-1.071,0.146-1.627V252.426c0,0,0,0,0-0.002  C377.42,247.454,373.391,243.424,368.42,243.424z M192.868,308.868h-50.457v-82.307c0-4.971-4.029-9-9-9s-9,4.029-9,9v91.04  c-0.003,0.089-0.004,0.178-0.004,0.267V377.8c0,4.971,4.029,9,9,9s9-4.029,9-9v-50.932h41.461V377.8c0,4.971,4.029,9,9,9  s9-4.029,9-9v-59.932C201.868,312.897,197.838,308.868,192.868,308.868z M128.152,118.769c-3.517,3.515-9.214,3.514-12.729,0  l-7.294-7.294c-1.607,0.847-3.298,1.553-5.059,2.103v10.31c0,4.971-4.029,9-9,9s-9-4.029-9-9v-10.309  c-1.762-0.55-3.455-1.257-5.063-2.104l-7.291,7.294c-3.515,3.515-9.212,3.517-12.729,0.002c-3.515-3.514-3.516-9.213-0.002-12.728  l7.293-7.296c-0.847-1.607-1.554-3.299-2.104-5.061H54.87c-4.971,0-9-4.029-9-9s4.029-9,9-9h10.308  c0.55-1.761,1.256-3.454,2.104-5.061l-7.293-7.293c-3.515-3.515-3.515-9.213,0.001-12.728c3.515-3.514,9.213-3.515,12.728,0  l7.294,7.295c1.607-0.847,3.3-1.553,5.061-2.103v-10.31c0-4.971,4.029-9,9-9s9,4.029,9,9v10.31c1.76,0.55,3.451,1.255,5.058,2.102  l7.296-7.295c3.515-3.514,9.213-3.515,12.728,0c3.515,3.515,3.515,9.213-0.001,12.728l-7.293,7.293  c0.847,1.607,1.554,3.299,2.104,5.061h10.307c4.971,0,9,4.029,9,9s-4.029,9-9,9h-10.307c-0.55,1.761-1.257,3.454-2.104,5.061  l7.294,7.294C131.667,109.556,131.667,115.254,128.152,118.769z M106.328,84.686c0-6.758-5.498-12.256-12.257-12.256  c-6.761,0-12.261,5.498-12.261,12.256c0,6.759,5.5,12.258,12.261,12.258C100.83,96.944,106.328,91.445,106.328,84.686z"
   id="path2" />
<g
   id="g4">
</g>
<g
   id="g6">
</g>
<g
   id="g8">
</g>
<g
   id="g10">
</g>
<g
   id="g12">
</g>
<g
   id="g14">
</g>
<g
   id="g16">
</g>
<g
   id="g18">
</g>
<g
   id="g20">
</g>
<g
   id="g22">
</g>
<g
   id="g24">
</g>
<g
   id="g26">
</g>
<g
   id="g28">
</g>
<g
   id="g30">
</g>
<g
   id="g32">
</g>
<text
   xml:space="preserve"
   style="font-style:normal;font-weight:normal;font-size:40px;line-height:1.25;font-family:sans-serif;letter-spacing:0px;word-spacing:0px;fill:#e73412;fill-opacity:1;stroke:none;opacity:0.66;"
   x="193.401"
   y="65.559662"
   id="text3746"><tspan
     sodipodi:role="line"
     id="tspan3744"
     x="193.401"
     y="65.559662">helpcovid</tspan></text>
</svg>
